<svg xmlns="http://www.w3.org/2000/svg" viewBox="0 0 5 5">
  <g transform="translate(0 -292)">
    <circle cx="2.5" cy="294.5" r="2.3" stroke-linecap="round" stroke-linejoin="round" stroke-width=".4"/>
    <g style="line-height:1.25">
      <path d="M2.79 295.3h-.72q-.02-.25.02-.43.04-.17.11-.29.07-.12.16-.19l.17-.12.14-.1q.07-.06.09-.13v-.1q0-.06-.04-.1-.03-.06-.1-.1-.08-.03-.2-.03l-.18.02-.22.04-.23.09q-.11.04-.2.1l-.1-.96.18-.1q.1-.07.22-.11.12-.05.26-.08t.3-.03q.27 0 .5.09.24.08.41.24.18.16.28.4.1.24.1.54 0 .24-.06.38-.05.14-.14.23-.1.09-.2.15l-.22.13-.2.18q-.08.1-.13.29zm.1.65q0 .11-.03.2-.04.1-.1.16-.06.08-.14.11-.08.05-.17.05-.1 0-.18-.05-.08-.03-.14-.1-.06-.07-.1-.17-.03-.09-.03-.2 0-.1.03-.2.04-.1.1-.16.06-.07.14-.12.08-.04.18-.04.09 0 .17.04.08.05.14.12.06.07.1.16.04.1.04.2z" stroke="none" style="fill:var(--stroke-alt,currentColor)" />
    </g>
  </g>
</svg>
